<svg width="599" height="520" viewBox="0 0 599 520" fill="none" xmlns="http://www.w3.org/2000/svg">
<g clip-path="url(#clip0_98_2)">
<path d="M554.029 481.345L570.148 476.232C572.157 467.581 572.023 458.571 569.76 449.983C563.284 464.382 544.285 467.909 533.46 479.402C530.111 483.012 527.618 487.33 526.164 492.035C524.711 496.74 524.335 501.711 525.065 506.581L521.673 518.085C529.594 517.408 537.273 515.023 544.183 511.092C551.093 507.162 557.068 501.78 561.697 495.318C564.259 491.667 566.35 487.708 567.922 483.535C561.048 482.846 554.029 481.345 554.029 481.345Z" fill="#F2F2F2"/>
<path d="M536.805 460.072L548.952 448.307C546.892 439.669 542.754 431.663 536.898 424.987C537.523 440.762 522.092 452.393 517.528 467.507C516.141 472.232 515.835 477.208 516.633 482.067C517.43 486.926 519.311 491.544 522.136 495.577L524.231 507.386C531.018 503.248 536.828 497.688 541.259 491.089C545.691 484.489 548.639 477.007 549.9 469.159C550.564 464.749 550.67 460.273 550.216 455.836C543.757 458.286 536.805 460.072 536.805 460.072Z" fill="#F2F2F2"/>
<path d="M306.495 421.354C360.03 421.354 403.428 377.956 403.428 324.421C403.428 270.886 360.03 227.487 306.495 227.487C252.96 227.487 209.561 270.886 209.561 324.421C209.561 377.956 252.96 421.354 306.495 421.354Z" fill="#F59E0B"/>
<path d="M306.361 358.241C314.009 358.241 320.209 352.041 320.209 344.393C320.209 336.745 314.009 330.546 306.361 330.546C298.713 330.546 292.514 336.745 292.514 344.393C292.514 352.041 298.713 358.241 306.361 358.241Z" fill="#3F3D56"/>
<path d="M306.361 350.785C309.891 350.785 312.753 347.923 312.753 344.393C312.753 340.864 309.891 338.002 306.361 338.002C302.832 338.002 299.97 340.864 299.97 344.393C299.97 347.923 302.832 350.785 306.361 350.785Z" fill="white"/>
<path d="M332.067 375.219H280.923C275.859 375.213 271.003 373.199 267.422 369.618C263.841 366.037 261.827 361.182 261.821 356.118V332.669C261.827 327.605 263.841 322.749 267.422 319.168C271.003 315.587 275.859 313.573 280.923 313.567H332.067C337.131 313.573 341.986 315.588 345.567 319.169C349.148 322.749 351.162 327.605 351.168 332.669V356.118C351.162 361.182 349.148 366.037 345.567 369.618C341.986 373.199 337.131 375.213 332.067 375.219ZM280.923 315.567C276.389 315.572 272.042 317.376 268.836 320.582C265.63 323.788 263.826 328.135 263.821 332.669V356.118C263.827 360.652 265.63 364.999 268.836 368.205C272.042 371.41 276.389 373.214 280.923 373.219H332.067C336.601 373.214 340.947 371.41 344.153 368.205C347.359 364.999 349.163 360.652 349.168 356.118V332.669C349.163 328.135 347.359 323.788 344.154 320.582C340.948 317.376 336.601 315.572 332.067 315.567L280.923 315.567Z" fill="white"/>
<path d="M277.894 362.49H323.289C325.645 362.49 327.979 362.026 330.155 361.124C332.332 360.222 334.31 358.901 335.976 357.235C337.643 355.569 338.964 353.591 339.866 351.414C340.768 349.237 341.232 346.904 341.232 344.547V324.924C341.228 322.748 340.827 320.59 340.048 318.558C342.263 320.226 344.06 322.385 345.297 324.866C346.535 327.347 347.179 330.081 347.179 332.854V352.477C347.179 354.833 346.715 357.167 345.813 359.343C344.912 361.52 343.59 363.498 341.924 365.164C340.258 366.831 338.28 368.152 336.103 369.054C333.926 369.956 331.593 370.42 329.236 370.42H283.841C280.203 370.418 276.651 369.309 273.658 367.241C270.665 365.174 268.371 362.244 267.082 358.842C270.189 361.209 273.988 362.49 277.894 362.49Z" fill="#0B1F3A"/>
<path d="M416.909 506.542L405.755 506.541L400.448 463.514L416.912 463.515L416.909 506.542Z" fill="#A0616A"/>
<path d="M417.302 518.178L383 518.177V517.743C383 514.202 384.407 510.807 386.91 508.303C389.414 505.799 392.81 504.392 396.351 504.392L402.618 499.638L414.309 504.393L417.303 504.393L417.302 518.178Z" fill="#2F2E41"/>
<path d="M495.838 506.542L506.993 506.541L512.3 463.514L495.836 463.515L495.838 506.542Z" fill="#A0616A"/>
<path d="M495.445 518.178L529.748 518.177V517.743C529.748 514.202 528.341 510.807 525.837 508.303C523.334 505.799 519.938 504.392 516.397 504.392L510.13 499.638L498.439 504.393L495.445 504.393L495.445 518.178Z" fill="#2F2E41"/>
<path d="M399.957 431.896C400.122 429.441 401.432 415.863 401.432 415.863L404.569 387.069L410.099 310.741L410.46 305.744L439.427 300.183L459.225 290.692L482.756 298.214L501.079 305.085C501.079 305.085 501.111 308.027 501.252 311.58C501.44 316.231 501.769 321.934 502.554 323.416C503.864 326.036 503.534 340.1 503.534 340.1C503.534 340.1 504.836 368.714 506.476 371.852C508.115 374.989 508.445 381.523 507.95 382.833C507.456 384.143 509.59 418.507 509.59 418.507C509.59 418.507 515.066 479.318 511.63 488.487C508.194 497.657 495.212 491.65 495.212 491.65C495.212 491.65 495.84 489.203 492.075 488.05C488.31 486.897 476.842 400.67 476.842 400.67C476.842 400.67 474.708 382.99 472.747 377.923C470.787 372.856 468.982 358.619 468.982 358.619C468.982 358.619 456.872 335.056 456.715 329.817C456.715 329.817 455.13 324.914 453.632 330.311C452.134 335.707 447.718 348.634 447.718 348.634L443.412 364.51L438.345 388.23L435.066 408.2C435.066 408.2 430.156 434.704 429.371 435.849C428.587 436.995 429.371 461.208 429.371 461.208C429.371 461.208 425.575 481.83 420.21 485.43C414.845 489.03 400.63 485.487 400.63 485.487C400.63 485.487 399.792 434.351 399.957 431.896Z" fill="#2F2E41"/>
<path d="M412.315 236.13L418.755 255.528L410.809 264.987L414.308 268.588L411.727 273.678L404.997 327.032L441.894 341.025L454.319 325.447L464.116 341.025L506.81 330.593L495.922 262.556V258.108L492.848 249.519V231.337L500.966 177.215L476.736 168.728L465.151 159.559L461.402 172.454L445.44 169.615L445.024 159.927L432.811 171.466L422.527 174.399L410.213 177.215L408.644 181.137L411.781 180.353L411.272 231.377L412.315 236.13Z" fill="#2F2E41"/>
<path d="M401.287 307.104L407.483 247.122L409.119 222.436L391.774 219.3C391.774 219.3 392.462 236.951 390.189 246.91C387.947 256.738 389.892 305.787 390.03 307.099C388.757 308.238 387.859 309.737 387.455 311.397C387.052 313.058 387.162 314.802 387.771 316.398C388.381 317.995 389.46 319.368 390.867 320.338C392.274 321.308 393.943 321.827 395.651 321.828C397.36 321.829 399.029 321.311 400.437 320.343C401.845 319.374 402.926 318.001 403.537 316.406C404.147 314.81 404.259 313.066 403.858 311.405C403.456 309.744 402.559 308.244 401.287 307.104Z" fill="#A0616A"/>
<path d="M384.368 259.551L389.192 260.548L405.742 263.975L406.66 264.164L408.613 256.398L410.88 253.982L415.194 231.377L415.422 230.2L421.94 216.269L426.45 174.399L409.679 177.411C409.593 177.497 409.515 177.592 409.436 177.686C407.028 180.415 405.31 184.212 402.502 188.032C393.364 200.464 386.353 230.671 386.627 247.221C386.635 247.488 386.36 247.778 386.031 248.076C384.476 249.506 383.461 251.428 383.158 253.518C382.855 255.608 383.283 257.739 384.368 259.551Z" fill="#2F2E41"/>
<path d="M509.108 307.104L502.911 247.122L501.276 222.436L518.621 219.3C518.621 219.3 517.933 236.951 520.206 246.91C522.448 256.738 520.503 305.787 520.364 307.099C521.638 308.238 522.536 309.737 522.94 311.397C523.343 313.058 523.233 314.802 522.623 316.398C522.014 317.995 520.935 319.368 519.528 320.338C518.12 321.308 516.452 321.827 514.743 321.828C513.035 321.829 511.366 321.311 509.958 320.343C508.55 319.374 507.469 318.001 506.858 316.406C506.247 314.81 506.135 313.066 506.537 311.405C506.939 309.744 507.836 308.244 509.108 307.104Z" fill="#A0616A"/>
<path d="M526.027 259.552L521.203 260.548L504.652 263.975L503.735 264.164L501.782 256.398L499.515 253.982L495.201 231.377L494.973 230.2L488.455 216.269L489.945 174.399L500.715 177.411C500.802 177.497 500.88 177.592 500.958 177.686C503.367 180.415 505.084 184.212 507.892 188.032C517.03 200.464 524.042 230.671 523.768 247.221C523.76 247.488 524.035 247.778 524.364 248.076C525.919 249.506 526.934 251.428 527.237 253.518C527.539 255.608 527.112 257.739 526.027 259.552Z" fill="#2F2E41"/>
<path d="M437.144 180.594L445.024 159.927L465.151 159.559L471.83 180.594L495.836 314.698C495.836 314.698 422.292 335.179 423.038 310.56C423.822 284.675 427.361 250.292 427.361 250.292L437.144 180.594Z" fill="#0B1F3A"/>
<path d="M454.638 154.147C467.732 154.147 478.348 143.531 478.348 130.437C478.348 117.342 467.732 106.727 454.638 106.727C441.543 106.727 430.928 117.342 430.928 130.437C430.928 143.531 441.543 154.147 454.638 154.147Z" fill="#A0616A"/>
<path d="M429.529 113.237C433.389 109.035 438.217 101.345 452.841 98.1151C470.912 94.1246 479.451 110.449 474.894 110.716C488.219 114.751 479.659 142.327 475.839 140.014C475.806 139.991 475.775 139.967 475.744 139.941C473.69 138.428 471.965 136.512 470.676 134.31C469.387 132.108 468.561 129.666 468.247 127.134L467.522 120.609C467.419 125.918 461.992 126.62 456.448 124.665C456.776 123.501 457.401 122.442 458.263 121.594C459.125 120.745 460.193 120.136 461.362 119.827C457.497 123.33 452.588 125.466 447.39 125.906C447.663 124.576 448.216 123.321 449.014 122.223C449.812 121.125 450.835 120.211 452.015 119.542L451.797 119.327C449.632 121.152 447.146 122.56 444.467 123.477C441.411 124.353 437.749 123.879 435.655 121.487C435.091 120.827 434.665 120.06 434.403 119.233C434.855 123.437 432.035 128.237 429.844 127.413C428.022 127.059 426.96 116.033 429.529 113.237Z" fill="#2F2E41"/>
<path d="M598.382 518.176C598.383 518.332 598.352 518.487 598.293 518.632C598.233 518.776 598.146 518.908 598.035 519.018C597.924 519.129 597.793 519.217 597.648 519.276C597.504 519.336 597.349 519.366 597.192 519.366H316.902C316.587 519.366 316.284 519.24 316.061 519.017C315.838 518.794 315.712 518.491 315.712 518.176C315.712 517.86 315.838 517.558 316.061 517.334C316.284 517.111 316.587 516.986 316.902 516.986H597.192C597.349 516.985 597.504 517.016 597.648 517.075C597.793 517.135 597.924 517.223 598.035 517.333C598.146 517.444 598.233 517.575 598.293 517.72C598.352 517.864 598.383 518.019 598.382 518.176Z" fill="#F59E0B"/>
<path d="M307.282 271.863C297.801 271.863 289.468 276.155 284.749 282.597C289.793 278.926 295.883 276.972 302.122 277.023C316.803 277.023 328.748 287.307 328.748 299.948V310.456H333.908V294.788C333.908 282.147 321.964 271.863 307.282 271.863Z" fill="#3F3D56"/>
<path d="M337.454 315.834H275.536V297.616C275.536 282.918 289.424 270.96 306.495 270.96C323.565 270.96 337.454 282.918 337.454 297.616V315.834ZM277.536 313.834H335.454V297.616C335.454 284.02 322.463 272.96 306.495 272.96C290.526 272.96 277.536 284.02 277.536 297.616V313.834Z" fill="white"/>
<path d="M322.352 308.879H290.637C289.21 308.877 287.843 308.31 286.834 307.301C285.825 306.292 285.257 304.924 285.256 303.497V296.247C285.256 286.139 294.784 277.915 306.495 277.915C318.206 277.915 327.733 286.139 327.733 296.247V303.497C327.732 304.924 327.164 306.292 326.156 307.301C325.147 308.31 323.779 308.877 322.352 308.879ZM306.495 279.915C295.886 279.915 287.256 287.241 287.256 296.247V303.497C287.257 304.394 287.613 305.253 288.247 305.887C288.881 306.521 289.741 306.878 290.637 306.879H322.352C323.249 306.878 324.108 306.521 324.742 305.887C325.376 305.253 325.732 304.394 325.733 303.497V296.247C325.733 287.241 317.103 279.915 306.495 279.915Z" fill="white"/>
</g>
<defs>
<clipPath id="clip0_98_2">
<rect width="598.383" height="519.366" fill="white"/>
</clipPath>
</defs>
</svg>
